<svg width="22" height="22" viewBox="0 0 22 22" fill="none" xmlns="http://www.w3.org/2000/svg">
<path d="M7.65 19H5C4.45 19 3.97917 18.8042 3.5875 18.4125C3.19583 18.0208 3 17.55 3 17V14.35L1.075 12.4C0.891667 12.2 0.75 11.9792 0.65 11.7375C0.55 11.4958 0.5 11.25 0.5 11C0.5 10.75 0.55 10.5042 0.65 10.2625C0.75 10.0208 0.891667 9.8 1.075 9.6L3 7.65V5C3 4.45 3.19583 3.97917 3.5875 3.5875C3.97917 3.19583 4.45 3 5 3H7.65L9.6 1.075C9.8 0.891667 10.0208 0.75 10.2625 0.65C10.5042 0.55 10.75 0.5 11 0.5C11.25 0.5 11.4958 0.55 11.7375 0.65C11.9792 0.75 12.2 0.891667 12.4 1.075L14.35 3H17C17.55 3 18.0208 3.19583 18.4125 3.5875C18.8042 3.97917 19 4.45 19 5V7.65L20.925 9.6C21.1083 9.8 21.25 10.0208 21.35 10.2625C21.45 10.5042 21.5 10.75 21.5 11C21.5 11.25 21.45 11.4958 21.35 11.7375C21.25 11.9792 21.1083 12.2 20.925 12.4L19 14.35V17C19 17.55 18.8042 18.0208 18.4125 18.4125C18.0208 18.8042 17.55 19 17 19H14.35L12.4 20.925C12.2 21.1083 11.9792 21.25 11.7375 21.35C11.4958 21.45 11.25 21.5 11 21.5C10.75 21.5 10.5042 21.45 10.2625 21.35C10.0208 21.25 9.8 21.1083 9.6 20.925L7.65 19ZM8.5 17L11 19.5L13.5 17H17V13.5L19.5 11L17 8.5V5H13.5L11 2.5L8.5 5H5V8.5L2.5 11L5 13.5V17H8.5Z" fill="white"/>
</svg>
