<svg width="16" height="20" viewBox="0 0 16 20" fill="none" xmlns="http://www.w3.org/2000/svg">
<path d="M2 20C1.45 20 0.979167 19.8042 0.5875 19.4125C0.195833 19.0208 0 18.55 0 18V2C0 1.45 0.195833 0.979167 0.5875 0.5875C0.979167 0.195833 1.45 0 2 0H9.175C9.44167 0 9.69583 0.05 9.9375 0.15C10.1792 0.25 10.3917 0.391667 10.575 0.575L15.425 5.425C15.6083 5.60833 15.75 5.82083 15.85 6.0625C15.95 6.30417 16 6.55833 16 6.825V18C16 18.55 15.8042 19.0208 15.4125 19.4125C15.0208 19.8042 14.55 20 14 20H2ZM9 6V2H2V18H14V7H10C9.71667 7 9.47917 6.90417 9.2875 6.7125C9.09583 6.52083 9 6.28333 9 6Z" fill="white"/>
</svg>
