<svg width="56" height="56" viewBox="0 0 56 56" fill="none" xmlns="http://www.w3.org/2000/svg">
<mask id="mask0_102_1252" style="mask-type:alpha" maskUnits="userSpaceOnUse" x="16" y="16" width="24" height="24">
<rect x="16" y="16" width="24" height="24" fill="#D9D9D9"/>
</mask>
<g mask="url(#mask0_102_1252)">
<path d="M24.65 36H22C21.45 36 20.9792 35.8042 20.5875 35.4125C20.1958 35.0208 20 34.55 20 34V31.35L18.075 29.4C17.8917 29.2 17.75 28.9792 17.65 28.7375C17.55 28.4958 17.5 28.25 17.5 28C17.5 27.75 17.55 27.5042 17.65 27.2625C17.75 27.0208 17.8917 26.8 18.075 26.6L20 24.65V22C20 21.45 20.1958 20.9792 20.5875 20.5875C20.9792 20.1958 21.45 20 22 20H24.65L26.6 18.075C26.8 17.8917 27.0208 17.75 27.2625 17.65C27.5042 17.55 27.75 17.5 28 17.5C28.25 17.5 28.4958 17.55 28.7375 17.65C28.9792 17.75 29.2 17.8917 29.4 18.075L31.35 20H34C34.55 20 35.0208 20.1958 35.4125 20.5875C35.8042 20.9792 36 21.45 36 22V24.65L37.925 26.6C38.1083 26.8 38.25 27.0208 38.35 27.2625C38.45 27.5042 38.5 27.75 38.5 28C38.5 28.25 38.45 28.4958 38.35 28.7375C38.25 28.9792 38.1083 29.2 37.925 29.4L36 31.35V34C36 34.55 35.8042 35.0208 35.4125 35.4125C35.0208 35.8042 34.55 36 34 36H31.35L29.4 37.925C29.2 38.1083 28.9792 38.25 28.7375 38.35C28.4958 38.45 28.25 38.5 28 38.5C27.75 38.5 27.5042 38.45 27.2625 38.35C27.0208 38.25 26.8 38.1083 26.6 37.925L24.65 36ZM25.5 34L28 36.5L30.5 34H34V30.5L36.5 28L34 25.5V22H30.5L28 19.5L25.5 22H22V25.5L19.5 28L22 30.5V34H25.5Z" fill="white"/>
</g>
</svg>
