<svg width="56" height="56" viewBox="0 0 56 56" fill="none" xmlns="http://www.w3.org/2000/svg">
<mask id="mask0_102_1248" style="mask-type:alpha" maskUnits="userSpaceOnUse" x="16" y="16" width="24" height="24">
<rect x="16" y="16" width="24" height="24" fill="#D9D9D9"/>
</mask>
<g mask="url(#mask0_102_1248)">
<path d="M22 38C21.45 38 20.9792 37.8042 20.5875 37.4125C20.1958 37.0208 20 36.55 20 36V20C20 19.45 20.1958 18.9792 20.5875 18.5875C20.9792 18.1958 21.45 18 22 18H29.175C29.4417 18 29.6958 18.05 29.9375 18.15C30.1792 18.25 30.3917 18.3917 30.575 18.575L35.425 23.425C35.6083 23.6083 35.75 23.8208 35.85 24.0625C35.95 24.3042 36 24.5583 36 24.825V36C36 36.55 35.8042 37.0208 35.4125 37.4125C35.0208 37.8042 34.55 38 34 38H22ZM29 24V20H22V36H34V25H30C29.7167 25 29.4792 24.9042 29.2875 24.7125C29.0958 24.5208 29 24.2833 29 24Z" fill="white"/>
</g>
</svg>
