<svg width="56" height="56" viewBox="0 0 56 56" fill="none" xmlns="http://www.w3.org/2000/svg">
<mask id="mask0_102_1219" style="mask-type:alpha" maskUnits="userSpaceOnUse" x="16" y="16" width="24" height="24">
<rect x="16" y="16" width="24" height="24" fill="#D9D9D9"/>
</mask>
<g mask="url(#mask0_102_1219)">
<path d="M21 37C20.45 37 19.9792 36.8042 19.5875 36.4125C19.1958 36.0208 19 35.55 19 35V21C19 20.45 19.1958 19.9792 19.5875 19.5875C19.9792 19.1958 20.45 19 21 19H27C27.2833 19 27.5208 19.0958 27.7125 19.2875C27.9042 19.4792 28 19.7167 28 20C28 20.2833 27.9042 20.5208 27.7125 20.7125C27.5208 20.9042 27.2833 21 27 21H21V35H27C27.2833 35 27.5208 35.0958 27.7125 35.2875C27.9042 35.4792 28 35.7167 28 36C28 36.2833 27.9042 36.5208 27.7125 36.7125C27.5208 36.9042 27.2833 37 27 37H21ZM33.175 29H26C25.7167 29 25.4792 28.9042 25.2875 28.7125C25.0958 28.5208 25 28.2833 25 28C25 27.7167 25.0958 27.4792 25.2875 27.2875C25.4792 27.0958 25.7167 27 26 27H33.175L31.3 25.125C31.1167 24.9417 31.025 24.7167 31.025 24.45C31.025 24.1833 31.1167 23.95 31.3 23.75C31.4833 23.55 31.7167 23.4458 32 23.4375C32.2833 23.4292 32.525 23.525 32.725 23.725L36.3 27.3C36.5 27.5 36.6 27.7333 36.6 28C36.6 28.2667 36.5 28.5 36.3 28.7L32.725 32.275C32.525 32.475 32.2875 32.5708 32.0125 32.5625C31.7375 32.5542 31.5 32.45 31.3 32.25C31.1167 32.05 31.0292 31.8125 31.0375 31.5375C31.0458 31.2625 31.1417 31.0333 31.325 30.85L33.175 29Z" fill="white"/>
</g>
</svg>
