<svg width="56" height="56" viewBox="0 0 56 56" fill="none" xmlns="http://www.w3.org/2000/svg">
<mask id="mask0_102_1249" style="mask-type:alpha" maskUnits="userSpaceOnUse" x="16" y="16" width="24" height="24">
<rect x="16" y="16" width="24" height="24" fill="#D9D9D9"/>
</mask>
<g mask="url(#mask0_102_1249)">
<path d="M21 38C20.45 38 19.9792 37.8042 19.5875 37.4125C19.1958 37.0208 19 36.55 19 36V22C19 21.45 19.1958 20.9792 19.5875 20.5875C19.9792 20.1958 20.45 20 21 20H22V19C22 18.7167 22.0958 18.4792 22.2875 18.2875C22.4792 18.0958 22.7167 18 23 18C23.2833 18 23.5208 18.0958 23.7125 18.2875C23.9042 18.4792 24 18.7167 24 19V20H32V19C32 18.7167 32.0958 18.4792 32.2875 18.2875C32.4792 18.0958 32.7167 18 33 18C33.2833 18 33.5208 18.0958 33.7125 18.2875C33.9042 18.4792 34 18.7167 34 19V20H35C35.55 20 36.0208 20.1958 36.4125 20.5875C36.8042 20.9792 37 21.45 37 22V36C37 36.55 36.8042 37.0208 36.4125 37.4125C36.0208 37.8042 35.55 38 35 38H21ZM21 36H35V26H21V36ZM21 24H35V22H21V24ZM28 30C27.7167 30 27.4792 29.9042 27.2875 29.7125C27.0958 29.5208 27 29.2833 27 29C27 28.7167 27.0958 28.4792 27.2875 28.2875C27.4792 28.0958 27.7167 28 28 28C28.2833 28 28.5208 28.0958 28.7125 28.2875C28.9042 28.4792 29 28.7167 29 29C29 29.2833 28.9042 29.5208 28.7125 29.7125C28.5208 29.9042 28.2833 30 28 30ZM24 30C23.7167 30 23.4792 29.9042 23.2875 29.7125C23.0958 29.5208 23 29.2833 23 29C23 28.7167 23.0958 28.4792 23.2875 28.2875C23.4792 28.0958 23.7167 28 24 28C24.2833 28 24.5208 28.0958 24.7125 28.2875C24.9042 28.4792 25 28.7167 25 29C25 29.2833 24.9042 29.5208 24.7125 29.7125C24.5208 29.9042 24.2833 30 24 30ZM32 30C31.7167 30 31.4792 29.9042 31.2875 29.7125C31.0958 29.5208 31 29.2833 31 29C31 28.7167 31.0958 28.4792 31.2875 28.2875C31.4792 28.0958 31.7167 28 32 28C32.2833 28 32.5208 28.0958 32.7125 28.2875C32.9042 28.4792 33 28.7167 33 29C33 29.2833 32.9042 29.5208 32.7125 29.7125C32.5208 29.9042 32.2833 30 32 30ZM28 34C27.7167 34 27.4792 33.9042 27.2875 33.7125C27.0958 33.5208 27 33.2833 27 33C27 32.7167 27.0958 32.4792 27.2875 32.2875C27.4792 32.0958 27.7167 32 28 32C28.2833 32 28.5208 32.0958 28.7125 32.2875C28.9042 32.4792 29 32.7167 29 33C29 33.2833 28.9042 33.5208 28.7125 33.7125C28.5208 33.9042 28.2833 34 28 34ZM24 34C23.7167 34 23.4792 33.9042 23.2875 33.7125C23.0958 33.5208 23 33.2833 23 33C23 32.7167 23.0958 32.4792 23.2875 32.2875C23.4792 32.0958 23.7167 32 24 32C24.2833 32 24.5208 32.0958 24.7125 32.2875C24.9042 32.4792 25 32.7167 25 33C25 33.2833 24.9042 33.5208 24.7125 33.7125C24.5208 33.9042 24.2833 34 24 34ZM32 34C31.7167 34 31.4792 33.9042 31.2875 33.7125C31.0958 33.5208 31 33.2833 31 33C31 32.7167 31.0958 32.4792 31.2875 32.2875C31.4792 32.0958 31.7167 32 32 32C32.2833 32 32.5208 32.0958 32.7125 32.2875C32.9042 32.4792 33 32.7167 33 33C33 33.2833 32.9042 33.5208 32.7125 33.7125C32.5208 33.9042 32.2833 34 32 34Z" fill="white"/>
</g>
</svg>
