<svg width="56" height="56" viewBox="0 0 56 56" fill="none" xmlns="http://www.w3.org/2000/svg">
<mask id="mask0_102_1251" style="mask-type:alpha" maskUnits="userSpaceOnUse" x="16" y="16" width="24" height="24">
<rect x="16" y="16" width="24" height="24" fill="#D9D9D9"/>
</mask>
<g mask="url(#mask0_102_1251)">
<path d="M22 34L19.7 36.3C19.3833 36.6167 19.0208 36.6875 18.6125 36.5125C18.2042 36.3375 18 36.025 18 35.575V20C18 19.45 18.1958 18.9792 18.5875 18.5875C18.9792 18.1958 19.45 18 20 18H36C36.55 18 37.0208 18.1958 37.4125 18.5875C37.8042 18.9792 38 19.45 38 20V32C38 32.55 37.8042 33.0208 37.4125 33.4125C37.0208 33.8042 36.55 34 36 34H22ZM21.15 32H36V20H20V33.125L21.15 32ZM23 30H29C29.2833 30 29.5208 29.9042 29.7125 29.7125C29.9042 29.5208 30 29.2833 30 29C30 28.7167 29.9042 28.4792 29.7125 28.2875C29.5208 28.0958 29.2833 28 29 28H23C22.7167 28 22.4792 28.0958 22.2875 28.2875C22.0958 28.4792 22 28.7167 22 29C22 29.2833 22.0958 29.5208 22.2875 29.7125C22.4792 29.9042 22.7167 30 23 30ZM23 27H33C33.2833 27 33.5208 26.9042 33.7125 26.7125C33.9042 26.5208 34 26.2833 34 26C34 25.7167 33.9042 25.4792 33.7125 25.2875C33.5208 25.0958 33.2833 25 33 25H23C22.7167 25 22.4792 25.0958 22.2875 25.2875C22.0958 25.4792 22 25.7167 22 26C22 26.2833 22.0958 26.5208 22.2875 26.7125C22.4792 26.9042 22.7167 27 23 27ZM23 24H33C33.2833 24 33.5208 23.9042 33.7125 23.7125C33.9042 23.5208 34 23.2833 34 23C34 22.7167 33.9042 22.4792 33.7125 22.2875C33.5208 22.0958 33.2833 22 33 22H23C22.7167 22 22.4792 22.0958 22.2875 22.2875C22.0958 22.4792 22 22.7167 22 23C22 23.2833 22.0958 23.5208 22.2875 23.7125C22.4792 23.9042 22.7167 24 23 24Z" fill="white"/>
</g>
</svg>
