<svg width="56" height="56" viewBox="0 0 56 56" fill="none" xmlns="http://www.w3.org/2000/svg">
<mask id="mask0_102_1250" style="mask-type:alpha" maskUnits="userSpaceOnUse" x="16" y="16" width="24" height="24">
<rect x="16" y="16" width="24" height="24" fill="#D9D9D9"/>
</mask>
<g mask="url(#mask0_102_1250)">
<path d="M20 36C19.45 36 18.9792 35.8042 18.5875 35.4125C18.1958 35.0208 18 34.55 18 34V22C18 21.45 18.1958 20.9792 18.5875 20.5875C18.9792 20.1958 19.45 20 20 20H25.175C25.4417 20 25.6958 20.05 25.9375 20.15C26.1792 20.25 26.3917 20.3917 26.575 20.575L28 22H36C36.55 22 37.0208 22.1958 37.4125 22.5875C37.8042 22.9792 38 23.45 38 24V34C38 34.55 37.8042 35.0208 37.4125 35.4125C37.0208 35.8042 36.55 36 36 36H20ZM20 34H36V24H27.175L25.175 22H20V34Z" fill="white"/>
</g>
</svg>
