<svg width="56" height="56" viewBox="0 0 56 56" fill="none" xmlns="http://www.w3.org/2000/svg">
<mask id="mask0_1_466" style="mask-type:alpha" maskUnits="userSpaceOnUse" x="4" y="4" width="48" height="48">
<rect x="4" y="4" width="48" height="48" fill="#D9D9D9"/>
</mask>
<g mask="url(#mask0_1_466)">
<path d="M16.1165 38C13.2675 38 10.8692 37.0084 8.92153 35.0253C6.97384 33.0422 6 30.6723 6 27.9156C6 25.1871 6.98122 22.8523 8.94366 20.9114C10.9061 18.9705 13.297 18 16.1165 18C17.2674 18 18.3827 18.1826 19.4625 18.5477C20.5423 18.9128 21.4995 19.4757 22.334 20.2363L26.0523 23.6118L23.0423 26.3544L19.6922 23.2359C19.2215 22.7866 18.6737 22.4627 18.0487 22.2641C17.4233 22.0655 16.7868 21.9662 16.139 21.9662C14.4419 21.9662 13.0213 22.548 11.8771 23.7114C10.733 24.8751 10.161 26.2816 10.161 27.9308C10.161 29.6084 10.7255 31.045 11.8546 32.2405C12.9833 33.436 14.4108 34.0338 16.1368 34.0338C16.786 34.0338 17.4162 33.9349 18.0274 33.7371C18.6389 33.5391 19.1891 33.2301 19.6781 32.8101L33.666 20.2363C34.5005 19.4757 35.4577 18.9128 36.5375 18.5477C37.6173 18.1826 38.7179 18 39.8393 18C42.6882 18 45.0939 18.9705 47.0563 20.9114C49.0188 22.8523 50 25.1871 50 27.9156C50 30.6723 49.0188 33.0422 47.0563 35.0253C45.0939 37.0084 42.6882 38 39.8393 38C38.7179 38 37.6099 37.8245 36.5154 37.4734C35.4208 37.1224 34.471 36.5665 33.666 35.8059L30.0805 32.4304L33.0463 29.6878L36.3206 32.8101C36.7641 33.2321 37.2958 33.5415 37.9155 33.7384C38.5352 33.9353 39.1697 34.0338 39.8189 34.0338C41.545 34.0338 42.9798 33.4338 44.1233 32.2338C45.2671 31.034 45.839 29.5994 45.839 27.93C45.839 26.2889 45.2597 24.8847 44.1012 23.7173C42.9429 22.5499 41.5155 21.9662 39.8189 21.9662C39.1697 21.9662 38.5395 22.0792 37.9283 22.3051C37.3169 22.5312 36.7814 22.8543 36.3219 23.2743L22.334 35.8481C21.4995 36.5806 20.5349 37.1224 19.4404 37.4734C18.3458 37.8245 17.2379 38 16.1165 38Z" fill="white"/>
</g>
</svg>
